<?xml version="1.0" encoding="UTF-8" standalone="no"?>
<svg
   xmlns:dc="http://purl.org/dc/elements/1.1/"
   xmlns:cc="http://creativecommons.org/ns#"
   xmlns:rdf="http://www.w3.org/1999/02/22-rdf-syntax-ns#"
   xmlns:svg="http://www.w3.org/2000/svg"
   xmlns="http://www.w3.org/2000/svg"
   xmlns:sodipodi="http://sodipodi.sourceforge.net/DTD/sodipodi-0.dtd"
   xmlns:inkscape="http://www.inkscape.org/namespaces/inkscape"
   width="24"
   height="24"
   viewBox="0 0 24 24"
   id="svg2"
   version="1.1"
   inkscape:version="0.91 r13725"
   sodipodi:docname="gears.svg">
  <sodipodi:namedview
     pagecolor="#ffffff"
     bordercolor="#666666"
     borderopacity="1"
     objecttolerance="10"
     gridtolerance="10"
     guidetolerance="10"
     inkscape:pageopacity="0"
     inkscape:pageshadow="2"
     inkscape:window-width="1920"
     inkscape:window-height="1178"
     id="namedview8"
     showgrid="false"
     inkscape:zoom="28.90299"
     inkscape:cx="5.2826799"
     inkscape:cy="11.738532"
     inkscape:window-x="-8"
     inkscape:window-y="-8"
     inkscape:window-maximized="1"
     inkscape:current-layer="svg2" />
  <metadata
     id="metadata12">
    <rdf:RDF>
      <cc:Work
         rdf:about="">
        <dc:format>image/svg+xml</dc:format>
        <dc:type
           rdf:resource="http://purl.org/dc/dcmitype/StillImage" />
        <dc:title />
      </cc:Work>
    </rdf:RDF>
  </metadata>
  <defs
     id="defs10" />
  <path
     id="path4"
     fill="none"
     d="M0 0h24v24h-24z" />
  <g
     id="g4892"
     transform="translate(10.431484,15.449824)"
     inkscape:label="Gear10">
    <path
       style="fill:#000000;fill-opacity:1;stroke:#000000;stroke-width:1"
       d="M 7.8535156,6.9628906 6.8769531,7.2792969 6.8574219,8.6171875 6.8886719,8.7050781 7.3984375,9.6992188 6.1875,10.578125 5.3984375,9.7871094 5.3261719,9.7304688 4.046875,9.3359375 3.4433594,10.166016 l 0.7695312,1.09375 0.078125,0.05273 0.9960938,0.503906 -0.4628906,1.423828 -1.1035157,-0.175781 -0.091797,-0.0039 -1.265625,0.431641 0,1.027343 1.265625,0.433594 0.091797,-0.0039 1.1035157,-0.177735 0.4628906,1.423828 -0.9960938,0.50586 -0.078125,0.05078 -0.7695312,1.09375 0.6035156,0.830078 1.2792969,-0.392578 0.072266,-0.05859 0.7890625,-0.791015 1.2109375,0.878906 -0.5097656,0.996094 -0.03125,0.08594 0.019531,1.337891 0.9765625,0.316406 0.8027344,-1.068359 0.025391,-0.08984 0.171875,-1.103516 1.4980468,0 0.171876,1.103516 0.02539,0.08984 0.802734,1.068359 0.976563,-0.316406 0.01953,-1.337891 -0.03125,-0.08594 -0.509765,-0.996094 1.210937,-0.878906 0.789063,0.791015 0.07226,0.05859 1.279297,0.392578 0.603516,-0.830078 -0.771485,-1.09375 -0.07617,-0.05078 -0.996093,-0.50586 0.460937,-1.423828 1.105469,0.177735 0.0918,0.0039 1.265625,-0.433594 0,-1.027343 -1.265625,-0.431641 -0.0918,0.0039 -1.105469,0.175781 -0.460937,-1.423828 0.996093,-0.503906 0.07617,-0.05273 0.771485,-1.09375 -0.603516,-0.8300785 -1.279297,0.3945313 -0.07226,0.056641 -0.789063,0.7910152 -1.210937,-0.8789058 0.509765,-0.9941407 0.03125,-0.087891 -0.01953,-1.3378906 -0.976563,-0.3164063 -0.802734,1.0703125 -0.02539,0.087891 -0.171876,1.1054687 -1.4980468,0 L 8.6816406,8.1210938 8.65625,8.0332031 7.8535156,6.9628906 Z m 1.7480469,3.3984374 a 3.620795,3.6452599 0 0 1 3.6210935,3.644531 3.620795,3.6452599 0 0 1 -3.6210935,3.646485 3.620795,3.6452599 0 0 1 -3.6191406,-3.646485 3.620795,3.6452599 0 0 1 3.6191406,-3.644531 z"
       transform="translate(-9.8960245,-14.103976)"
       id="path4894"
       inkscape:connector-curvature="0" />
  </g>
  <path
     style="fill:#000000;fill-opacity:1;stroke:#000000;stroke-width:0.89853436"
     d="M 14.884766 1.5625 L 14.177734 1.9570312 L 14.365234 3.2402344 L 14.396484 3.2792969 L 15.140625 4.0429688 L 14.552734 5.0273438 L 13.529297 4.7363281 L 13.478516 4.7285156 L 12.261719 5.171875 L 12.25 5.9804688 L 13.455078 6.4589844 L 13.505859 6.453125 L 14.537109 6.1894531 L 15.097656 7.1914062 L 14.332031 7.9316406 L 14.300781 7.9707031 L 14.076172 9.2480469 L 14.771484 9.6621094 L 15.787109 8.859375 L 15.806641 8.8105469 L 16.095703 7.7871094 L 17.242188 7.8027344 L 17.501953 8.8339844 L 17.519531 8.8828125 L 18.513672 9.7148438 L 19.21875 9.3203125 L 19.03125 8.0371094 L 19 7.9980469 L 18.257812 7.234375 L 18.84375 6.25 L 19.869141 6.5410156 L 19.919922 6.5507812 L 21.136719 6.1054688 L 21.148438 5.296875 L 19.943359 4.8183594 L 19.892578 4.8242188 L 18.861328 5.0878906 L 18.300781 4.0859375 L 19.066406 3.3457031 L 19.097656 3.3066406 L 19.322266 2.0292969 L 18.626953 1.6152344 L 17.609375 2.4179688 L 17.589844 2.4667969 L 17.302734 3.4902344 L 16.15625 3.4746094 L 15.896484 2.4433594 L 15.878906 2.3945312 L 14.884766 1.5625 z M 16.699219 3.7011719 A 1.9375159 1.9375159 0 0 1 18.636719 5.6386719 A 1.9375159 1.9375159 0 0 1 16.699219 7.5761719 A 1.9375159 1.9375159 0 0 1 14.761719 5.6386719 A 1.9375159 1.9375159 0 0 1 16.699219 3.7011719 z "
     id="path7649" />
</svg>
