<?xml version="1.0" encoding="UTF-8" standalone="no"?>
<svg
   xmlns:dc="http://purl.org/dc/elements/1.1/"
   xmlns:cc="http://creativecommons.org/ns#"
   xmlns:rdf="http://www.w3.org/1999/02/22-rdf-syntax-ns#"
   xmlns:svg="http://www.w3.org/2000/svg"
   xmlns="http://www.w3.org/2000/svg"
   xmlns:sodipodi="http://sodipodi.sourceforge.net/DTD/sodipodi-0.dtd"
   xmlns:inkscape="http://www.inkscape.org/namespaces/inkscape"
   width="24"
   height="24"
   viewBox="0 0 24 24"
   id="svg2"
   version="1.1"
   inkscape:version="0.91 r13725"
   sodipodi:docname="update the gears.svg">
  <sodipodi:namedview
     pagecolor="#ffffff"
     bordercolor="#666666"
     borderopacity="1"
     objecttolerance="10"
     gridtolerance="10"
     guidetolerance="10"
     inkscape:pageopacity="0"
     inkscape:pageshadow="2"
     inkscape:window-width="1169"
     inkscape:window-height="1019"
     id="namedview8"
     showgrid="false"
     inkscape:zoom="28.90299"
     inkscape:cx="11.354716"
     inkscape:cy="11.738532"
     inkscape:window-x="209"
     inkscape:window-y="78"
     inkscape:window-maximized="0"
     inkscape:current-layer="svg2" />
  <metadata
     id="metadata12">
    <rdf:RDF>
      <cc:Work
         rdf:about="">
        <dc:format>image/svg+xml</dc:format>
        <dc:type
           rdf:resource="http://purl.org/dc/dcmitype/StillImage" />
        <dc:title></dc:title>
      </cc:Work>
    </rdf:RDF>
  </metadata>
  <defs
     id="defs10" />
  <g
     id="g6013"
     transform="matrix(0.73474485,0,0,0.73474485,6.3315251,6.3315251)">
    <path
       d="M 0,0 24,0 24,24 0,24 Z"
       id="path4"
       inkscape:connector-curvature="0"
       style="fill:none" />
    <g
       inkscape:label="Gear10"
       transform="translate(10.431484,15.449824)"
       id="g4892">
      <path
         inkscape:connector-curvature="0"
         id="path4894"
         transform="translate(-9.8960245,-14.103976)"
         d="M 7.8535156,6.9628906 6.8769531,7.2792969 6.8574219,8.6171875 6.8886719,8.7050781 7.3984375,9.6992188 6.1875,10.578125 5.3984375,9.7871094 5.3261719,9.7304688 4.046875,9.3359375 3.4433594,10.166016 l 0.7695312,1.09375 0.078125,0.05273 0.9960938,0.503906 -0.4628906,1.423828 -1.1035157,-0.175781 -0.091797,-0.0039 -1.265625,0.431641 0,1.027343 1.265625,0.433594 0.091797,-0.0039 1.1035157,-0.177735 0.4628906,1.423828 -0.9960938,0.50586 -0.078125,0.05078 -0.7695312,1.09375 0.6035156,0.830078 1.2792969,-0.392578 0.072266,-0.05859 0.7890625,-0.791015 1.2109375,0.878906 -0.5097656,0.996094 -0.03125,0.08594 0.019531,1.337891 0.9765625,0.316406 0.8027344,-1.068359 0.025391,-0.08984 0.171875,-1.103516 1.4980468,0 0.171876,1.103516 0.02539,0.08984 0.802734,1.068359 0.976563,-0.316406 0.01953,-1.337891 -0.03125,-0.08594 -0.509765,-0.996094 1.210937,-0.878906 0.789063,0.791015 0.07226,0.05859 1.279297,0.392578 0.603516,-0.830078 -0.771485,-1.09375 -0.07617,-0.05078 -0.996093,-0.50586 0.460937,-1.423828 1.105469,0.177735 0.0918,0.0039 1.265625,-0.433594 0,-1.027343 -1.265625,-0.431641 -0.0918,0.0039 -1.105469,0.175781 -0.460937,-1.423828 0.996093,-0.503906 0.07617,-0.05273 0.771485,-1.09375 -0.603516,-0.8300785 -1.279297,0.3945313 -0.07226,0.056641 -0.789063,0.7910152 -1.210937,-0.8789058 0.509765,-0.9941407 0.03125,-0.087891 -0.01953,-1.3378906 -0.976563,-0.3164063 -0.802734,1.0703125 -0.02539,0.087891 -0.171876,1.1054687 -1.4980468,0 L 8.6816406,8.1210938 8.65625,8.0332031 7.8535156,6.9628906 Z m 1.7480469,3.3984374 a 3.620795,3.6452599 0 0 1 3.6210935,3.644531 3.620795,3.6452599 0 0 1 -3.6210935,3.646485 3.620795,3.6452599 0 0 1 -3.6191406,-3.646485 3.620795,3.6452599 0 0 1 3.6191406,-3.644531 z"
         style="fill:#000000;fill-opacity:1;stroke:#000000;stroke-width:1" />
    </g>
    <path
       id="path7649"
       d="m 14.884766,1.5625 -0.707032,0.3945312 0.1875,1.2832032 0.03125,0.039063 0.744141,0.7636719 -0.587891,0.984375 -1.023437,-0.2910157 -0.05078,-0.00781 L 12.26172,5.171878 12.25,5.9804718 l 1.205078,0.4785156 0.05078,-0.00586 1.03125,-0.2636719 0.560547,1.0019531 -0.765625,0.7402344 -0.03125,0.039063 -0.224609,1.2773438 0.695312,0.4140625 1.015625,-0.8027344 0.01953,-0.048828 0.289062,-1.0234375 1.146485,0.015625 0.259765,1.03125 0.01758,0.048828 0.994141,0.8320313 L 19.21875,9.3203125 19.03125,8.0371094 19,7.9980469 18.257812,7.234375 18.84375,6.25 l 1.025391,0.2910156 0.05078,0.00977 1.216797,-0.4453124 0.01172,-0.8085938 -1.205079,-0.4785156 -0.05078,0.00586 -1.03125,0.2636718 -0.560547,-1.0019531 0.765625,-0.7402344 0.03125,-0.039063 0.22461,-1.2773437 -0.695313,-0.4140625 -1.017578,0.8027344 -0.01953,0.048828 -0.28711,1.0234375 -1.146484,-0.015625 -0.259766,-1.03125 -0.01758,-0.048828 L 14.884766,1.5625 Z m 1.814453,2.1386719 a 1.9375159,1.9375159 0 0 1 1.9375,1.9375 1.9375159,1.9375159 0 0 1 -1.9375,1.9375 1.9375159,1.9375159 0 0 1 -1.9375,-1.9375 1.9375159,1.9375159 0 0 1 1.9375,-1.9375 z"
       style="fill:#000000;fill-opacity:1;stroke:#000000;stroke-width:0.89853436"
       inkscape:connector-curvature="0" />
  </g>
  <path
     inkscape:connector-curvature="0"
     d="m 14.161888,6.7037607 -3.406883,0 0,-6.26081954 -5.1103236,2.483e-4 0,6.26057124 -3.4068829,0 5.962045,5.7704233 z"
     id="path6021"
     sodipodi:nodetypes="cccccccc" />
</svg>
